<svg width="200" height="200" viewBox="0 0 24 24" fill="none" xmlns="http://www.w3.org/2000/svg">
    <rect width="24" height="24" fill="#FFD43B"/>
    <path d="M9.5 2C7.57 2 6 3.57 6 5.5V7h7v1H5.5C3.57 8 2 9.57 2 11.5v3C2 16.43 3.57 18 5.5 18H7v-1H5.5C4.67 17 4 16.33 4 15.5v-3C4 11.67 4.67 11 5.5 11H13c.83 0 1.5-.67 1.5-1.5V5.5C14.5 3.57 12.93 2 11 2H9.5zM8 4.5c.55 0 1 .45 1 1S8.55 6.5 8 6.5 7 6.05 7 5.5 7.45 4.5 8 4.5zM16.5 6c1.93 0 3.5 1.57 3.5 3.5V11h-7v1h7.5c1.93 0 3.5 1.57 3.5 3.5v3c0 1.93-1.57 3.5-3.5 3.5H17v-1h1.5c.83 0 1.5-.67 1.5-1.5v-3c0-.83-.67-1.5-1.5-1.5H11c-.83 0-1.5.67-1.5 1.5v4.5c0 1.93 1.57 3.5 3.5 3.5h1.5c1.93 0 3.5-1.57 3.5-3.5V14h-7v-1h7.5c1.93 0 3.5-1.57 3.5-3.5V9.5C20 7.57 18.43 6 16.5 6zM16 17.5c.55 0 1 .45 1 1s-.45 1-1 1-1-.45-1-1 .45-1 1-1z" fill="#3776AB"/>
</svg>
